<?xml version="1.0" encoding="UTF-8" standalone="no"?>
<svg
   xmlns:dc="http://purl.org/dc/elements/1.1/"
   xmlns:cc="http://creativecommons.org/ns#"
   xmlns:rdf="http://www.w3.org/1999/02/22-rdf-syntax-ns#"
   xmlns:svg="http://www.w3.org/2000/svg"
   xmlns="http://www.w3.org/2000/svg"
   xmlns:xlink="http://www.w3.org/1999/xlink"
   xmlns:sodipodi="http://sodipodi.sourceforge.net/DTD/sodipodi-0.dtd"
   xmlns:inkscape="http://www.inkscape.org/namespaces/inkscape"
   viewBox="0 0 1000 650"
   height="650"
   width="1000"
   xml:space="preserve"
   version="1.1"
   id="svg4343"
   sodipodi:docname="Ortsausgang.svg"
   inkscape:version="0.92.4 (5da689c313, 2019-01-14)"><sodipodi:namedview
     pagecolor="#ffffff"
     bordercolor="#666666"
     borderopacity="1"
     objecttolerance="10"
     gridtolerance="10"
     guidetolerance="10"
     inkscape:pageopacity="0"
     inkscape:pageshadow="2"
     inkscape:window-width="1920"
     inkscape:window-height="1017"
     id="namedview5732"
     showgrid="false"
     inkscape:zoom="0.81175858"
     inkscape:cx="615.09599"
     inkscape:cy="212.36584"
     inkscape:window-x="-8"
     inkscape:window-y="-8"
     inkscape:window-maximized="1"
     inkscape:current-layer="svg4343" /><metadata
     id="metadata4349"><rdf:RDF><cc:Work
         rdf:about=""><dc:format>image/svg+xml</dc:format><dc:type
           rdf:resource="http://purl.org/dc/dcmitype/StillImage" /><dc:title></dc:title></cc:Work></rdf:RDF></metadata><defs
     id="defs4347"><linearGradient
       inkscape:collect="always"
       id="linearGradient6338"><stop
         style="stop-color:#f0ac00;stop-opacity:1"
         offset="0"
         id="stop6334" /><stop
         style="stop-color:#fcca03;stop-opacity:1"
         offset="1"
         id="stop6336" /></linearGradient><linearGradient
       inkscape:collect="always"
       xlink:href="#linearGradient6338"
       id="linearGradient6340"
       x1="2.4637804"
       y1="4.4878869"
       x2="997.83362"
       y2="5.719779"
       gradientUnits="userSpaceOnUse" /></defs><path
     id="path4355"
     style="fill:url(#linearGradient6340);fill-opacity:1;fill-rule:nonzero;stroke:none;stroke-width:1.25"
     d="m 0,35 v 580 c 0,35 35,35 35,35 h 930 c 0,0 35,0.97625 35,-35 V 35 C 1000,0 965,0 965,0 H 35 C 0,0 0,35 0,35 Z"
     inkscape:connector-curvature="0" /><path
     id="path4357"
     style="fill:#000000;fill-opacity:1;fill-rule:nonzero;stroke:none;stroke-width:1.25"
     d="M 965,10 H 35 C 10,10 10,35 10,35 v 580.025 c 0,0 1.62125,24.81875 25,24.975 h 930 c 25,0 25,-25 25,-25 V 35 c 0,0 0,-25 -25,-25 z m 0,25 V 615 H 35 V 35 Z"
     inkscape:connector-curvature="0" /><path
     id="path4359"
     style="fill:#c1121c;fill-opacity:1;fill-rule:evenodd;stroke:none;stroke-width:1.25"
     d="M 882.85125,35 35,571.9925 V 615 H 97.92 L 965,65.83 V 35 Z"
     inkscape:connector-curvature="0" /></svg>